<mxfile host="app.diagrams.net" agent="Mozilla/5.0 (Windows NT 10.0; Win64; x64) AppleWebKit/537.36 (KHTML, like Gecko) Chrome/136.0.0.0 Safari/537.36" version="27.0.6">
  <diagram name="Page-1" id="iWYksR-LK-WmAYDwQHZO">
    <mxGraphModel dx="1388" dy="648" grid="1" gridSize="10" guides="1" tooltips="1" connect="1" arrows="1" fold="1" page="1" pageScale="1" pageWidth="1169" pageHeight="827" math="0" shadow="0">
      <root>
        <mxCell id="0" />
        <mxCell id="1" parent="0" />
        <mxCell id="UUDh4dBdKiK-Q3wQa4E3-1" value="IDLE&lt;div&gt;-------&lt;/div&gt;&lt;div&gt;Read the cache when transitioning to CHECK&lt;/div&gt;" style="ellipse;whiteSpace=wrap;html=1;aspect=fixed;" parent="1" vertex="1">
          <mxGeometry x="400" y="240" width="120" height="120" as="geometry" />
        </mxCell>
        <mxCell id="UUDh4dBdKiK-Q3wQa4E3-2" value="CHECK&lt;div&gt;-----------&lt;/div&gt;&lt;div&gt;Check hit, complete transaction or go to READ&lt;/div&gt;" style="ellipse;whiteSpace=wrap;html=1;aspect=fixed;" parent="1" vertex="1">
          <mxGeometry x="640" y="240" width="120" height="120" as="geometry" />
        </mxCell>
        <mxCell id="UUDh4dBdKiK-Q3wQa4E3-3" value="" style="endArrow=classic;html=1;rounded=0;exitX=1;exitY=0;exitDx=0;exitDy=0;entryX=0;entryY=0;entryDx=0;entryDy=0;" parent="1" source="UUDh4dBdKiK-Q3wQa4E3-1" target="UUDh4dBdKiK-Q3wQa4E3-2" edge="1">
          <mxGeometry width="50" height="50" relative="1" as="geometry">
            <mxPoint x="502.42640687119274" y="249.99640687119273" as="sourcePoint" />
            <mxPoint x="657.5735931288073" y="249.99640687119273" as="targetPoint" />
          </mxGeometry>
        </mxCell>
        <mxCell id="UUDh4dBdKiK-Q3wQa4E3-4" value="cif.read" style="edgeLabel;html=1;align=center;verticalAlign=middle;resizable=0;points=[];" parent="UUDh4dBdKiK-Q3wQa4E3-3" vertex="1" connectable="0">
          <mxGeometry y="-2" relative="1" as="geometry">
            <mxPoint y="-2" as="offset" />
          </mxGeometry>
        </mxCell>
        <mxCell id="UUDh4dBdKiK-Q3wQa4E3-5" value="" style="endArrow=classic;html=1;rounded=0;exitX=0;exitY=1;exitDx=0;exitDy=0;entryX=1;entryY=1;entryDx=0;entryDy=0;" parent="1" source="UUDh4dBdKiK-Q3wQa4E3-2" target="UUDh4dBdKiK-Q3wQa4E3-1" edge="1">
          <mxGeometry width="50" height="50" relative="1" as="geometry">
            <mxPoint x="657.5735931288073" y="360.00359312880727" as="sourcePoint" />
            <mxPoint x="502.42640687119274" y="360.00359312880727" as="targetPoint" />
          </mxGeometry>
        </mxCell>
        <mxCell id="UUDh4dBdKiK-Q3wQa4E3-6" value="hit &amp;amp;&amp;amp; cif.done" style="edgeLabel;html=1;align=center;verticalAlign=middle;resizable=0;points=[];" parent="UUDh4dBdKiK-Q3wQa4E3-5" vertex="1" connectable="0">
          <mxGeometry x="-0.0104" relative="1" as="geometry">
            <mxPoint as="offset" />
          </mxGeometry>
        </mxCell>
        <mxCell id="UUDh4dBdKiK-Q3wQa4E3-7" value="READ&lt;div&gt;--------&lt;/div&gt;&lt;div&gt;Read the word and write to cache&lt;/div&gt;" style="ellipse;whiteSpace=wrap;html=1;aspect=fixed;" parent="1" vertex="1">
          <mxGeometry x="640" y="480" width="120" height="120" as="geometry" />
        </mxCell>
        <mxCell id="UUDh4dBdKiK-Q3wQa4E3-8" value="" style="endArrow=classic;html=1;rounded=0;exitX=0.5;exitY=1;exitDx=0;exitDy=0;entryX=0.5;entryY=0;entryDx=0;entryDy=0;" parent="1" source="UUDh4dBdKiK-Q3wQa4E3-2" target="UUDh4dBdKiK-Q3wQa4E3-7" edge="1">
          <mxGeometry width="50" height="50" relative="1" as="geometry">
            <mxPoint x="720" y="360" as="sourcePoint" />
            <mxPoint x="720" y="480" as="targetPoint" />
          </mxGeometry>
        </mxCell>
        <mxCell id="UUDh4dBdKiK-Q3wQa4E3-10" value="!hit" style="edgeLabel;html=1;align=center;verticalAlign=middle;resizable=0;points=[];" parent="UUDh4dBdKiK-Q3wQa4E3-8" vertex="1" connectable="0">
          <mxGeometry x="-0.0483" relative="1" as="geometry">
            <mxPoint as="offset" />
          </mxGeometry>
        </mxCell>
        <mxCell id="UUDh4dBdKiK-Q3wQa4E3-11" value="" style="endArrow=classic;html=1;rounded=0;exitX=0;exitY=0;exitDx=0;exitDy=0;entryX=1;entryY=1;entryDx=0;entryDy=0;" parent="1" source="UUDh4dBdKiK-Q3wQa4E3-7" target="UUDh4dBdKiK-Q3wQa4E3-1" edge="1">
          <mxGeometry width="50" height="50" relative="1" as="geometry">
            <mxPoint x="510" y="490" as="sourcePoint" />
            <mxPoint x="640" y="390" as="targetPoint" />
          </mxGeometry>
        </mxCell>
        <mxCell id="UUDh4dBdKiK-Q3wQa4E3-12" value="amif.ready &amp;amp;&amp;amp; cif.done" style="edgeLabel;html=1;align=center;verticalAlign=middle;resizable=0;points=[];" parent="UUDh4dBdKiK-Q3wQa4E3-11" vertex="1" connectable="0">
          <mxGeometry x="-0.0582" y="-1" relative="1" as="geometry">
            <mxPoint as="offset" />
          </mxGeometry>
        </mxCell>
      </root>
    </mxGraphModel>
  </diagram>
</mxfile>
